<svg width="25" height="25" viewBox="0 0 25 25" fill="none" xmlns="http://www.w3.org/2000/svg">
<path d="M16.0437 21.875V14.6187H18.474L18.8375 11.7979H16.0437V9.99792C16.0437 9.18125 16.2708 8.62396 17.4417 8.62396H18.9354V6.10104C18.2123 6.02432 17.4855 5.98711 16.7583 5.98958C14.6052 5.98958 13.1312 7.30417 13.1312 9.71875V11.7979H10.6958V14.6187H13.1312V21.875H4.16667C3.8904 21.875 3.62545 21.7653 3.4301 21.5699C3.23475 21.3746 3.125 21.1096 3.125 20.8333V4.16667C3.125 3.8904 3.23475 3.62545 3.4301 3.4301C3.62545 3.23475 3.8904 3.125 4.16667 3.125H20.8333C21.1096 3.125 21.3746 3.23475 21.5699 3.4301C21.7653 3.62545 21.875 3.8904 21.875 4.16667V20.8333C21.875 21.1096 21.7653 21.3746 21.5699 21.5699C21.3746 21.7653 21.1096 21.875 20.8333 21.875H16.0437Z" fill="black"/>
</svg>
